<?xml version="1.0" encoding="UTF-8" standalone="no"?>
<svg xmlns="http://www.w3.org/2000/svg" xmlns:xlink="http://www.w3.org/1999/xlink" width="48" height="48">
  <defs>
    <linearGradient id="e">
      <stop offset="0" stop-color="#fdfdfd"/>
      <stop offset="1" stop-color="#d7d7d1"/>
    </linearGradient>
    <linearGradient id="d">
      <stop offset="0" stop-color="#888a85"/>
      <stop offset="1" stop-color="#888a85" stop-opacity="0"/>
    </linearGradient>
    <linearGradient id="c">
      <stop offset="0" stop-color="#73d216"/>
      <stop offset="1" stop-color="#73d216" stop-opacity="0"/>
    </linearGradient>
    <linearGradient id="b">
      <stop offset="0" stop-color="#fff"/>
      <stop offset="1" stop-color="#959589"/>
    </linearGradient>
    <linearGradient id="a">
      <stop offset="0" stop-color="#67cc08"/>
      <stop offset="1" stop-color="#4f7b25"/>
    </linearGradient>
    <linearGradient xlink:href="#a" id="j" x1="8.6548281" x2="36.760807" y1="1017.8235" y2="1022.2745" gradientUnits="userSpaceOnUse"/>
    <linearGradient xlink:href="#b" id="h" x1="5.9285579" x2="45.312737" y1="1017.927" y2="1036.897" gradientUnits="userSpaceOnUse"/>
    <linearGradient xlink:href="#c" id="k" x1="11.250453" x2="26.841595" y1="1020.0332" y2="1020.0332" gradientUnits="userSpaceOnUse"/>
    <linearGradient xlink:href="#d" id="f" x1="24.464287" x2="24.285711" y1="33.26786" y2="44.25" gradientUnits="userSpaceOnUse"/>
    <linearGradient xlink:href="#e" id="i" x1="7.3487101" x2="41.501675" y1="1016.8018" y2="1033.9113" gradientUnits="userSpaceOnUse"/>
    <filter id="g" color-interpolation-filters="sRGB">
      <feFlood flood-color="#000" flood-opacity=".5" result="flood"/>
      <feComposite in="flood" in2="SourceGraphic" operator="in" result="composite1"/>
      <feGaussianBlur result="blur" stdDeviation="9"/>
      <feOffset dx="4" dy="4" result="offset"/>
      <feComposite in="SourceGraphic" in2="offset" result="composite2"/>
    </filter>
  </defs>
  <g transform="translate(0 -1004.3622)">
    <path fill="url(#f)" d="M45.446428 42.107143c0 .887601-9.35405 1.607143-20.892856 1.607143-11.538806 0-20.8928569-.719542-20.8928569-1.607143 0-.8876 9.3540509-1.607142 20.8928569-1.607142 11.538806 0 20.892856.719542 20.892856 1.607142z" filter="url(#g)" transform="translate(.80357143 1004.3622)"/>
    <path fill="#babdb6" stroke="#6c7165" d="M22.15625 1009.70595c-.141849.016742-.279699.058-.40625.125l-15.0625 7.96875c-.5062033.268-2.4860564 1.7614-1.65625 2.75l19.375 24.125c.356297.452 1.056296.61175 1.5625.34375l15.40625-8.375c.916575-.5205 1.119986-3.025743.290179-3.919643L23.28125 1010.1747c-.267223-.338925-.699453-.5189766-1.125-.46875z"/>
    <path fill="url(#h)" d="m6.9044055 1018.233 14.9030035-7.8908c.465999-.2468 1.100433-.1067 1.433219.3056l18.133691 22.4668c.332786.4123.21691.9496-.249089 1.1964l-14.903004 7.8908c-.465999.2468-1.100432.1067-1.433218-.3056l-18.1336922-22.4668c-.3327863-.4123-.2169099-.9496.2490897-1.1964z"/>
    <path fill="url(#i)" d="m7.4583842 1018.4933 14.4204938-7.6353c.450911-.2389 1.064804-.1033 1.386816.2957l17.546582 21.7394c.322011.3989.209887.9188-.241025 1.1576l-14.420494 7.6353c-.450911.2389-1.064803.1033-1.386815-.2957l-17.5465828-21.7394c-.3220118-.3989-.2098871-.9188.241025-1.1576z"/>
    <path fill="#75507b" d="m9.4472867 1018.5604 12.1406603-6.4283c.561578-.2973 1.331917-.133 1.727173.3684l4.639489 5.8851c1.531587 1.9428.998596 3.443-.702505 4.3437l-10.242853 5.4234c-.561578.2973-1.331864.1331-1.727174-.3684l-6.1349745-7.7821c-.3952567-.5014-.2613938-1.1445.3001842-1.4418z"/>
    <path fill="url(#j)" d="m10.949837 1018.6116 9.842668-5.2115c.561577-.2973 1.331864-.1331 1.727173.3684l4.922738 6.2444c.395257.5014.261341 1.1444-.300237 1.4418l-9.842668 5.2115c-.561578.2973-1.331864.1331-1.72712-.3683l-4.922738-6.2445c-.39531-.5014-.261394-1.1444.300184-1.4418z"/>
    <path fill="url(#k)" d="m11.727078 1018.7481 8.897772-4.7112c.507666-.2688 1.204008-.1203 1.561364.333l4.450145 5.645c.357303.4532.236299 1.0346-.271368 1.3034l-8.897771 4.7111c-.507667.2688-1.204061.1203-1.561364-.3329l-4.450145-5.645c-.357356-.4533-.2363-1.0346.271367-1.3034z"/>
    <path fill="#a40000" d="M33.028003 1031.7558c.593826.7532.391291 1.726-.452376 2.1727-.843667.4467-2.008986.1982-2.602813-.5551-.593826-.7532-.39129-1.726.452377-2.1727.843668-.4467 2.008985-.1982 2.602812.5551z"/>
    <path fill="#c00" d="M33.15867 1031.2648c.593826.7532.391291 1.726-.452376 2.1727-.843667.4467-2.008987.1982-2.602813-.5551-.593826-.7532-.39129-1.726.452377-2.1727.843667-.4467 2.008985-.1982 2.602812.5551z"/>
    <path fill="#a40000" d="M34.10129 1027.0838c.593826.7532.391291 1.726-.452376 2.1727-.843667.4467-2.008986.1982-2.602813-.5551-.593826-.7532-.39129-1.726.452377-2.1727.843668-.4467 2.008985-.1982 2.602812.5551z"/>
    <path fill="#c00" d="M34.227559 1026.705c.593826.7532.391291 1.726-.452376 2.1727-.843667.4467-2.008986.1982-2.602813-.5551-.593826-.7532-.39129-1.726.452377-2.1727.843668-.4467 2.008985-.1982 2.602812.5551z"/>
    <path fill="#ef2929" d="M33.003799 1031.3468c.533623.6768.351621 1.551-1.463724 1.1639-1.815346-.3871-1.633343-1.2613-.875209-1.6627s1.80531-.1781 2.338933.4988zm1.09375-4.5759c.533623.6768.351621 1.551-1.463724 1.1639-1.815346-.3871-1.633343-1.2613-.875209-1.6627s1.80531-.1781 2.338933.4988z"/>
    <g transform="matrix(.49595 -.26323 .2964 .43861 -290.67247 578.11146)">
      <rect width="2.9673231" height="11.364216" x="8.5231619" y="32.342636" fill="#2e3436" ry=".51539916" transform="translate(0 1004.3622)"/>
      <rect width="2.9673231" height="11.364216" x="-1043.8706" y="4.3247156" fill="#2e3436" ry=".51539916" transform="rotate(-90)"/>
      <rect width="2.9673231" height="11.364216" x="8.7910194" y="1036.3923" fill="#555753" ry=".51539916"/>
      <rect width="2.9673231" height="11.364216" x="-1043.5581" y="4.5925727" fill="#555753" ry=".51539916" transform="rotate(-90)"/>
    </g>
  </g>
</svg>